<svg clip-rule="evenodd" fill-rule="evenodd" stroke-linejoin="round" stroke-miterlimit="1.41421" viewBox="0 0 560 400" xmlns="http://www.w3.org/2000/svg"><path d="m633.9 812.041c112.46 0 173.96-93.168 173.96-173.96 0-2.646-.054-5.28-.173-7.903 11.938-8.63 22.314-19.4 30.498-31.66-10.955 4.87-22.744 8.148-35.111 9.626 12.623-7.569 22.314-19.543 26.886-33.817-11.813 7.003-24.895 12.093-38.824 14.841-11.157-11.884-27.041-19.317-44.629-19.317-33.764 0-61.144 27.381-61.144 61.132 0 4.798.537 9.464 1.586 13.941-50.815-2.557-95.874-26.886-126.03-63.88-5.251 9.035-8.279 19.531-8.279 30.73 0 21.212 10.794 39.938 27.208 50.893-10.031-.31-19.454-3.064-27.69-7.647-.009.257-.009.507-.009.781 0 29.61 21.075 54.332 49.051 59.934-5.137 1.4-10.543 2.151-16.122 2.151-3.933 0-7.766-.387-11.491-1.102 7.784 24.293 30.355 41.971 57.115 42.465-20.926 16.402-47.287 26.171-75.937 26.171-4.929 0-9.798-.281-14.584-.847 27.059 17.344 59.189 27.464 93.722 27.464" fill="#1da1f2" fill-rule="nonzero" transform="matrix(.906028 0 0 .906028 -344.419 -426.017)"/></svg>